HIERARCHY
ROOT Hips
{
  OFFSET 40.9192 92.6879 18.85
  CHANNELS 6 Xposition Yposition Zposition Zrotation Xrotation Yrotation
  JOINT LeftUpLeg
  {
    OFFSET 8.64259 1.95398 -2.38835
    CHANNELS 3 Zrotation Xrotation Yrotation
    JOINT LeftLeg
    {
      OFFSET 43.7702 0 0
      CHANNELS 3 Zrotation Xrotation Yrotation
      JOINT LeftFoot
      {
        OFFSET 40.6238 0 0
        CHANNELS 3 Zrotation Xrotation Yrotation
        JOINT LeftToeBase
        {
          OFFSET 12.7242 0 0
          CHANNELS 3 Zrotation Xrotation Yrotation
          End Site
          {
            OFFSET 0 0 0
          }
        }
      }
    }
  }
  JOINT RightUpLeg
  {
    OFFSET -8.2249 1.95398 -2.59336
    CHANNELS 3 Zrotation Xrotation Yrotation
    JOINT RightLeg
    {
      OFFSET 43.5653 0 0
      CHANNELS 3 Zrotation Xrotation Yrotation
      JOINT RightFoot
      {
        OFFSET 40.6238 0 0
        CHANNELS 3 Zrotation Xrotation Yrotation
        JOINT RightToeBase
        {
          OFFSET 12.7242 0 0
          CHANNELS 3 Zrotation Xrotation Yrotation
          End Site
          {
            OFFSET 0 0 0
          }
        }
      }
    }
  }
  JOINT Spine
  {
    OFFSET 0.165834 0.87714 6.61349
    CHANNELS 3 Zrotation Xrotation Yrotation
    JOINT Spine1
    {
      OFFSET 7.38963 1.71661e-005 0
      CHANNELS 3 Zrotation Xrotation Yrotation
      JOINT Spine2
      {
        OFFSET 11.9445 1.14441e-005 0
        CHANNELS 3 Zrotation Xrotation Yrotation
        JOINT Spine3
        {
          OFFSET 14.7254 4.19617e-005 0
          CHANNELS 3 Zrotation Xrotation Yrotation
          JOINT Spine4
          {
            OFFSET 10.9679 0 0
            CHANNELS 3 Zrotation Xrotation Yrotation
            JOINT RightShoulder
            {
              OFFSET 2.46616 -1.6653 3.69651
              CHANNELS 3 Zrotation Xrotation Yrotation
              JOINT RightArm
              {
                OFFSET 13.0012 0 0
                CHANNELS 3 Zrotation Xrotation Yrotation
                JOINT RightForeArm
                {
                  OFFSET 28.7848 1.52588e-005 0
                  CHANNELS 3 Zrotation Xrotation Yrotation
                  JOINT RightHand
                  {
                    OFFSET 26.5688 1.52588e-005 0
                    CHANNELS 3 Zrotation Xrotation Yrotation
                    End Site
                    {
                      OFFSET 0 0 0
                    }
                  }
                }
              }
            }
            JOINT LeftShoulder
            {
              OFFSET 2.38034 -1.29275 -3.7523
              CHANNELS 3 Zrotation Xrotation Yrotation
              JOINT LeftArm
              {
                OFFSET 16.3182 6.10351e-005 0
                CHANNELS 3 Zrotation Xrotation Yrotation
                JOINT LeftForeArm
                {
                  OFFSET 27.0901 0 0
                  CHANNELS 3 Zrotation Xrotation Yrotation
                  JOINT LeftHand
                  {
                    OFFSET 24.5451 1.52588e-005 0
                    CHANNELS 3 Zrotation Xrotation Yrotation
                    End Site
                    {
                      OFFSET 0 0 0
                    }
                  }
                }
              }
            }
            JOINT Neck
            {
              OFFSET 5.0226 -0.0266342 0
              CHANNELS 3 Zrotation Xrotation Yrotation
              JOINT Head
              {
                OFFSET 6.69363 2.86102e-005 0
                CHANNELS 3 Zrotation Xrotation Yrotation
                End Site
                {
                  OFFSET 0 0 0
                }
              }
            }
          }
        }
      }
    }
  }
}
MOTION
Frames:	7
Frame Time:	0.0416667
31.1829 97.5196 -245.286 -87.3794 -85.823 -87.404 -172.796 5.73923 88.4471 -15.843 15.6126 -2.30833 67.3547 8.43022 6.12526 33.9473 3.60438 15.0541 172.049 14.2978 91.2985 -32.2378 -1.63355 2.51668 55.538 5.18163 4.20612 46.9236 2.16264 13.1341 0.0831782 7.26363 -89.9868 12.3466 0.171606 0.0068744 0.675652 0.17175 -0.000689522 -21.8596 0.161608 0.0581397 -1.84694 0.161603 0.0581288 90.8038 -47.1984 -100.219 30.2874 -8.75348 1.11818 -11.7419 -30.6771 -43.3581 -2.45523 -0.741748 5.33566 -98.2617 -51.481 67.0298 -23.2033 14.9241 0.0816799 2.69833 12.994 -30.1289 11.5044 0.889522 3.67043 12.0921 3.29269 1.08151 -6.1424 2.96851 2.14681 
31.4608 97.2335 -244.377 -79.3161 -86.4333 -79.5371 -173.186 6.05135 87.8203 -16.7625 16.6574 -2.11692 67.828 10.4125 10.3426 28.4136 -1.02799 6.52632 172.911 14.5489 91.4033 -33.5722 -2.22952 1.39311 57.2117 4.40806 3.55583 51.4909 2.33269 8.70476 0.122128 7.29742 -89.9633 12.279 0.260144 0.0440249 0.60806 0.26183 0.032521 -21.9273 0.234888 0.12017 -1.91461 0.234889 0.120169 91.5359 -47.049 -99.089 30.4344 -8.44802 1.30932 -10.3777 -29.1854 -43.1911 -2.96771 -0.858145 8.54644 -99.2024 -50.8733 65.4706 -23.2086 15.079 0.308127 2.3931 11.995 -30.6963 11.764 0.937493 3.90968 11.4075 2.9045 0.430095 -5.16617 2.75082 2.55901 
31.8768 97.0165 -243.288 -78.4489 -87.0788 -78.2911 -173.055 5.59237 88.0015 -17.3584 15.9334 -1.98937 69.0391 11.3543 9.22054 27.4959 -1.60056 4.72629 173.455 12.5196 91.8599 -32.6391 -1.81174 0.946562 61.3521 2.14166 1.74501 52.439 2.0623 6.13305 0.0927273 7.36203 -89.9924 12.1501 0.187954 -0.00589479 0.4792 0.187517 -0.0141683 -22.0561 0.181028 0.0508568 -2.04344 0.181041 0.0508651 91.2968 -47.165 -99.4439 30.4167 -8.24036 2.09227 -10.6426 -29.1923 -43.0802 -3.90121 -0.908497 7.73152 -98.485 -50.4988 66.3751 -23.5535 15.6653 0.00890368 2.71275 12.3323 -31.6349 11.6095 0.956751 4.15728 10.8779 2.77567 0.297348 -4.50364 2.67068 2.62301 
32.445 96.3159 -242.307 -80.4437 -86.4523 -79.7004 -172.659 6.50792 88.2 -20.5355 15.3403 -2.18775 70.3853 12.4846 9.83388 29.1135 0.0252019 2.40907 175.382 12.6441 92.9272 -34.88 -4.62939 -0.893748 65.3199 -1.04033 -0.365625 51.352 1.03348 -0.880129 0.195809 7.43599 -90.0227 12.0016 0.378665 -0.0867347 0.330721 0.374484 -0.10332 -22.2048 0.387224 0.0310891 -2.19218 0.387223 0.0310746 91.2534 -46.9596 -99.559 30.6914 -8.34861 3.01951 -10.4808 -28.8864 -43.4311 -4.15545 -0.914196 7.53035 -98.3534 -50.1063 66.431 -23.0438 16.8418 -0.673238 2.69966 12.4189 -32.8816 11.7379 1.10986 5.3123 10.1148 2.71684 0.141359 -3.42787 2.66911 2.45156 
32.676 95.6888 -241.394 -85.2727 -85.4572 -85.8364 -172.869 6.20302 86.8816 -22.1392 13.6291 -2.50163 72.1395 13.2211 8.46095 28.8435 0.0968539 -0.474022 174.841 14.3274 92.134 -37.9629 1.50984 0.107356 68.7922 -4.26705 -2.31465 48.3615 1.46896 4.54364 0.204839 7.56117 -89.776 11.7505 0.512679 0.392538 0.0796224 0.529453 0.369579 -22.4555 0.370993 0.528461 -2.44289 0.371003 0.528469 91.3583 -47.2224 -99.3337 31.3211 -8.39527 3.35032 -10.8914 -28.9604 -43.5202 -4.23953 -0.917389 7.38138 -98.0929 -49.4537 66.5866 -22.0766 16.8831 -0.969799 3.65391 12.0248 -35.2828 10.8595 0.892687 4.09189 9.10833 3.04253 -0.806268 -1.41238 3.22789 2.84219 
33.2796 95.3955 -239.901 -82.6478 -85.6052 -82.6347 -172.587 6.15977 87.1773 -23.6841 13.1042 -2.61522 73.3682 13.6855 7.81619 29.7954 0.945113 -1.67495 176.591 18.0457 92.9051 -42.7913 -3.24019 -1.2849 69.7749 -5.10614 -2.72728 46.242 0.575722 -3.34795 0.0273225 7.65125 -89.8256 11.5715 0.136105 0.334165 -0.0995398 0.15068 0.327848 -22.6343 0.0293814 0.359623 -2.62166 0.0293856 0.359627 91.7821 -47.0718 -98.6916 32.0537 -8.71104 3.64575 -10.6357 -29.1157 -43.5322 -4.51905 -0.96831 7.95647 -98.3913 -49.867 66.2938 -19.9455 16.8843 -2.75883 3.45672 11.4487 -35.902 10.9375 0.835483 3.54907 8.44191 3.79172 -0.313043 -0.463362 3.90751 3.23701 
33.9721 95.6199 -237.452 -68.0318 -86.9306 -66.658 -172.867 4.39261 88.0571 -21.8133 14.5267 -1.86858 73.4171 14.0986 8.61547 29.1951 0.645487 -3.40419 177.211 20.1026 93.5892 -38.2627 -6.76028 -1.37068 68.8283 -4.60571 -2.49288 44.7905 0.138022 -8.73049 -0.260429 7.6042 -90.0269 11.6662 -0.530624 0.00120494 -0.00462901 -0.530049 0.0245498 -22.5406 -0.506452 -0.158329 -2.52798 -0.506449 -0.158328 91.9273 -47.2085 -98.4316 32.2184 -8.80321 5.7125 -10.1291 -28.5138 -42.9083 -4.87811 -0.937332 6.97126 -98.9715 -49.6997 65.3891 -19.3636 16.4452 -4.08645 3.53603 11.2449 -36.1236 10.7583 0.954364 4.68275 7.47353 4.13942 -0.671039 -0.463109 4.3686 4.65124 
